# xmcd
#
# Track frame offsets:
# 150
# 20247
# 39747
# 59330
# 80477
# 91765
# 113135
# 133687
# 152512
# 166917
# 183080
# 204195
# 223995
# 245277
# 265487
# 286450
#
# Disc length: 4179 seconds
#
# Revision: 1
# Processed by: cddbd v1.5.2PL0 Copyright (c) Steve Scherf et al.
# Submitted via: Easy CD Ripper 2.39
#
DISCID=e0105110
DTITLE=王菲 - 32精選
DYEAR=1997
DGENRE=Blues
TTITLE0=約定 - 王菲
TTITLE1=敷衍 - 王菲
TTITLE2=暗湧 - 王菲
TTITLE3=曖昧 - 王菲
TTITLE4=Di-Dar - 王菲
TTITLE5=一人分飾兩角 - 王菲
TTITLE6=愛與痛的邊緣 - 王菲
TTITLE7=蜜月期 - 王菲
TTITLE8=討好自己 - 王菲
TTITLE9=知己知彼 - 王菲
TTITLE10=夢遊 - 王菲
TTITLE11=夢中人 - 王菲
TTITLE12=天與地 - 王菲
TTITLE13=如風 - 王菲
TTITLE14=Summer of Love - 王菲
TTITLE15=不再兒嬉 - 王菲
EXTD=
EXTT0=
EXTT1=
EXTT2=
EXTT3=
EXTT4=
EXTT5=
EXTT6=
EXTT7=
EXTT8=
EXTT9=
EXTT10=
EXTT11=
EXTT12=
EXTT13=
EXTT14=
EXTT15=
PLAYORDER=
